<?xml version="1.0" standalone="no"?>
<!DOCTYPE svg PUBLIC "-//W3C//DTD SVG 20010904//EN"
 "http://www.w3.org/TR/2001/REC-SVG-20010904/DTD/svg10.dtd">
<svg version="1.0" xmlns="http://www.w3.org/2000/svg"
 width="32.000000pt" height="32.000000pt" viewBox="0 0 32.000000 32.000000"
 preserveAspectRatio="xMidYMid meet">

<g transform="translate(0.000000,32.000000) scale(0.100000,-0.100000)"
fill="#000000" stroke="none">
<path d="M173 304 c-18 -9 -30 -20 -27 -25 3 -5 18 -2 34 6 16 8 38 15 50 15
12 0 34 -7 50 -15 17 -9 31 -11 35 -5 8 13 -48 40 -82 40 -15 0 -43 -8 -60
-16z"/>
<path d="M192 267 c-29 -17 -17 -29 14 -15 17 8 31 8 49 0 29 -14 44 2 16 17
-26 14 -51 13 -79 -2z"/>
<path d="M210 175 l0 -35 -99 0 c-81 0 -100 -3 -105 -16 -10 -27 -7 -99 6
-112 17 -17 279 -17 296 0 13 13 16 85 6 112 -4 10 -18 16 -35 16 -26 0 -29 3
-29 35 0 28 -4 35 -20 35 -16 0 -20 -7 -20 -35z m70 -100 l0 -35 -120 0 -120
0 0 35 0 35 120 0 120 0 0 -35z"/>
<path d="M50 70 c0 -13 7 -20 20 -20 13 0 20 7 20 20 0 13 -7 20 -20 20 -13 0
-20 -7 -20 -20z"/>
<path d="M120 70 c0 -11 7 -20 15 -20 8 0 15 9 15 20 0 11 -7 20 -15 20 -8 0
-15 -9 -15 -20z"/>
<path d="M180 70 c0 -11 7 -20 15 -20 8 0 15 9 15 20 0 11 -7 20 -15 20 -8 0
-15 -9 -15 -20z"/>
</g>
</svg>
