<?xml version="1.0" encoding="UTF-8" standalone="no" ?>
<!DOCTYPE svg PUBLIC "-//W3C//DTD SVG 1.1//EN" "http://www.w3.org/Graphics/SVG/1.1/DTD/svg11.dtd">
<svg xmlns="http://www.w3.org/2000/svg" xmlns:xlink="http://www.w3.org/1999/xlink" version="1.1" width="42" height="42" viewBox="0 0 42 42" xml:space="preserve">
<desc>Created with Fabric.js 5.3.0</desc>
<defs>
</defs>
<g transform="matrix(0.0482357904 0 0 0.0406299731 20.7161791996 20.7123762909)" id="4Dt41tDkupfpzyhPZTmW6"  >
<path style="stroke: none; stroke-width: 1; stroke-dasharray: none; stroke-linecap: butt; stroke-dashoffset: 0; stroke-linejoin: miter; stroke-miterlimit: 4; fill: rgb(179,179,179); fill-rule: nonzero; opacity: 1;"  transform=" translate(0, 0)" d="M 403.50632 279.30361 C 388.38333 314.24085 370.48264 346.40035 349.74252 375.96735 C 321.47176 416.27475000000004 298.32432 444.17515000000003 280.48535000000004 459.66855 C 252.83188000000004 485.09985 223.20315000000005 498.12415 191.47571000000005 498.86485 C 168.69863000000004 498.86485 141.23032000000006 492.38355 109.25598000000005 479.23584999999997 C 77.17672000000005 466.14975 47.69613000000005 459.66855 20.740150000000057 459.66855 C -7.530599999999943 459.66855 -37.85067999999994 466.14975 -70.28177999999994 479.23584999999997 C -102.76230999999994 492.38354999999996 -128.92816999999994 499.23524999999995 -148.93373999999994 499.91425 C -179.35874999999993 501.21047999999996 -209.68496999999994 487.81575 -239.95566999999994 459.66855 C -259.2760599999999 442.81714999999997 -283.4419899999999 413.92915 -312.3917399999999 373.00444999999996 C -343.45251999999994 329.30204999999995 -368.9887799999999 278.62461999999994 -388.99434999999994 220.84858999999997 C -410.4196299999999 158.44306999999998 -421.1600399999999 98.01280999999997 -421.1600399999999 39.508429999999976 C -421.1600399999999 -27.508050000000026 -406.6789999999999 -85.30877000000002 -377.67369999999994 -133.74558000000002 C -354.87809999999996 -172.65179 -324.5518599999999 -203.34222 -286.59623999999997 -225.87242000000003 C -248.64057999999997 -248.40258000000003 -207.62947999999997 -259.88371000000006 -163.46414 -260.61827000000005 C -139.29823 -260.61827000000005 -107.60780999999999 -253.14319000000006 -68.22629999999998 -238.45227000000006 C -28.95587999999998 -223.71198000000007 -3.740589999999983 -216.23689000000005 7.314610000000016 -216.23689000000005 C 15.579790000000017 -216.23689000000005 43.591290000000015 -224.97739000000004 91.07751000000002 -242.40276000000006 C 135.98358000000002 -258.56277000000006 173.88365000000002 -265.25394000000006 204.93209000000002 -262.61822000000006 C 289.06535 -255.82830000000007 352.27331000000004 -222.66263000000006 394.30908 -162.91136000000006 C 319.06444999999997 -117.32014000000007 281.84335 -53.46406000000006 282.58406 28.453199999999953 C 283.26305 92.25989999999996 306.41049000000004 145.35703999999996 351.90294 187.51628999999994 C 372.51958 207.08355999999995 395.54359999999997 222.20655999999994 421.16004 232.94698999999994 C 415.60472999999996 249.05760999999995 409.74071 264.48923999999994 403.50631999999996 279.30360999999994 z M 210.54922 -479.99432 C 210.54922 -429.98291 192.27813999999998 -383.28739 155.85951999999997 -340.0665 C 111.91019999999997 -288.68532000000005 58.751349999999974 -258.99488 1.1049299999999675 -263.67991 C 0.3703899999999676 -269.67974 -0.05552000000003243 -275.99435 -0.05552000000003243 -282.62994000000003 C -0.05552000000003243 -330.64085000000006 20.845079999999967 -382.02201 57.96125999999997 -424.03308000000004 C 76.49152999999997 -445.30402000000004 100.05871999999997 -462.99052000000006 128.63810999999998 -477.09938000000005 C 157.15576 -490.99773000000005 184.13026 -498.68381000000005 209.49983999999998 -500.00002000000006 C 210.24059999999997 -493.3142700000001 210.54922 -486.62811000000005 210.54922 -479.9949700000001 z" stroke-linecap="round" />
</g>
</svg>