<?xml version="1.0" encoding="UTF-8" standalone="no" ?>
<!DOCTYPE svg PUBLIC "-//W3C//DTD SVG 1.1//EN" "http://www.w3.org/Graphics/SVG/1.1/DTD/svg11.dtd">
<svg xmlns="http://www.w3.org/2000/svg" xmlns:xlink="http://www.w3.org/1999/xlink" version="1.1" width="40" height="40" viewBox="0 0 42 42" xml:space="preserve">
<desc>Created with Fabric.js 5.3.0</desc>
<defs>
</defs>
<g transform="matrix(0.5833333333 0 0 0.5833334211 21 21)" id="HUwWSTNVfDbvdHgeDiOqR"  >
<g style=""   >
		<g transform="matrix(1 0 0 1 -14.0575 12.5004)" id="tc_2c-iT7ud2MTWxcm0g8"  >
<path style="stroke: none; stroke-width: 0.09673701; stroke-dasharray: none; stroke-linecap: butt; stroke-dashoffset: 0; stroke-linejoin: miter; stroke-miterlimit: 4; fill: rgb(196,18,46); fill-rule: nonzero; opacity: 1;"  transform=" translate(-21.9425, -31.5004)" d="M 23.521 25.2449 L 20.364 25.2449 L 20.364 37.7559 L 23.521 37.7559 z" stroke-linecap="round" />
</g>
		<g transform="matrix(1 0 0 1 8.2063 12.5004)" id="uXqVr_08iv-OIy4A5jpal"  >
<path style="stroke: none; stroke-width: 1; stroke-dasharray: none; stroke-linecap: butt; stroke-dashoffset: 0; stroke-linejoin: miter; stroke-miterlimit: 4; fill: rgb(196,18,46); fill-rule: nonzero; opacity: 1;"  transform=" translate(-11.2531, -31.5004)" d="M 16.0236 28.8299 C 15.896599999999998 28.7639 14.881599999999999 28.1619 13.371599999999997 28.1619 C 11.326599999999997 28.1619 9.911599999999996 29.5829 9.911599999999996 31.4989 C 9.911599999999996 33.3579 11.267599999999996 34.838899999999995 13.371599999999997 34.838899999999995 C 14.855599999999997 34.838899999999995 15.887599999999997 34.2499 16.0236 34.174899999999994 L 16.0236 37.53289999999999 C 15.631599999999999 37.64389999999999 14.554599999999999 37.97789999999999 13.144599999999999 37.97789999999999 C 9.5956 37.97789999999999 6.482599999999999 35.52989999999999 6.482599999999999 31.498899999999992 C 6.482599999999999 27.76289999999999 9.302599999999998 25.022899999999993 13.144599999999999 25.022899999999993 C 14.6306 25.022899999999993 15.726599999999998 25.383899999999993 16.0236 25.471899999999994 z" stroke-linecap="round" />
</g>
		<g transform="matrix(1 0 0 1 -24.7469 12.5004)" id="DCf_J4-eqhHZjd3jFIdO8"  >
<path style="stroke: none; stroke-width: 1; stroke-dasharray: none; stroke-linecap: butt; stroke-dashoffset: 0; stroke-linejoin: miter; stroke-miterlimit: 4; fill: rgb(196,18,46); fill-rule: nonzero; opacity: 1;"  transform=" translate(-11.2531, -31.5004)" d="M 16.0236 28.8299 C 15.896599999999998 28.7639 14.881599999999999 28.1619 13.371599999999997 28.1619 C 11.326599999999997 28.1619 9.911599999999996 29.5829 9.911599999999996 31.4989 C 9.911599999999996 33.3579 11.267599999999996 34.838899999999995 13.371599999999997 34.838899999999995 C 14.855599999999997 34.838899999999995 15.887599999999997 34.2499 16.0236 34.174899999999994 L 16.0236 37.53289999999999 C 15.631599999999999 37.64389999999999 14.554599999999999 37.97789999999999 13.144599999999999 37.97789999999999 C 9.5956 37.97789999999999 6.482599999999999 35.52989999999999 6.482599999999999 31.498899999999992 C 6.482599999999999 27.76289999999999 9.302599999999998 25.022899999999993 13.144599999999999 25.022899999999993 C 14.6306 25.022899999999993 15.726599999999998 25.383899999999993 16.0236 25.471899999999994 z" stroke-linecap="round" />
</g>
		<g transform="matrix(1 0 0 1 22.9104 12.5003)" id="FQV8LtFmhvXb-KIh9pM0i"  >
<path style="stroke: none; stroke-width: 1; stroke-dasharray: none; stroke-linecap: butt; stroke-dashoffset: 0; stroke-linejoin: miter; stroke-miterlimit: 4; fill: rgb(196,18,46); fill-rule: nonzero; opacity: 1;"  transform=" translate(-58.9104, -31.5003)" d="M 58.9084 28.2088 C 57.0354 28.2088 55.6444 29.6828 55.6444 31.4988 C 55.6444 33.318799999999996 57.035399999999996 34.7918 58.9084 34.7918 C 60.7794 34.7918 62.1744 33.3188 62.1744 31.498800000000003 C 62.1744 29.682800000000004 60.779399999999995 28.208800000000004 58.9084 28.208800000000004 M 65.5194 31.498800000000003 C 65.5194 35.0778 62.756400000000006 37.9778 58.90840000000001 37.9778 C 55.06040000000001 37.9778 52.30140000000001 35.0778 52.30140000000001 31.498800000000003 C 52.30140000000001 27.925800000000002 55.06040000000001 25.022800000000004 58.90840000000001 25.022800000000004 C 62.756400000000006 25.022800000000004 65.5194 27.925800000000002 65.5194 31.498800000000003" stroke-linecap="round" />
</g>
		<g transform="matrix(1 0 0 1 -3.9361 12.4992)" id="5ih2oFFxKXDEfnvDTvggO"  >
<path style="stroke: none; stroke-width: 1; stroke-dasharray: none; stroke-linecap: butt; stroke-dashoffset: 0; stroke-linejoin: miter; stroke-miterlimit: 4; fill: rgb(196,18,46); fill-rule: nonzero; opacity: 1;"  transform=" translate(-32.0639, -31.4992)" d="M 35.4934 28.0887 C 35.446400000000004 28.0737 34.1174 27.706699999999998 33.025400000000005 27.706699999999998 C 31.760400000000004 27.706699999999998 31.072400000000005 28.130699999999997 31.072400000000005 28.731699999999996 C 31.072400000000005 29.493699999999997 32.000400000000006 29.759699999999995 32.519400000000005 29.923699999999997 L 33.39040000000001 30.200699999999998 C 35.439400000000006 30.8527 36.373400000000004 32.2557 36.373400000000004 33.7797 C 36.373400000000004 36.9227 33.6094 37.978699999999996 31.193400000000004 37.978699999999996 C 29.514400000000006 37.978699999999996 27.941400000000005 37.6697 27.786400000000004 37.6367 L 27.786400000000004 34.7577 C 28.064400000000003 34.8277 29.388400000000004 35.2227 30.767400000000002 35.2227 C 32.3384 35.2227 33.0604 34.7637 33.0604 34.054700000000004 C 33.0604 33.420700000000004 32.4354 33.054700000000004 31.6524 32.8087 C 31.4614 32.7447 31.1744 32.6547 30.9784 32.5907 C 29.2204 32.0347 27.7544 31.0017 27.7544 28.930699999999998 C 27.7544 26.5907 29.5064 25.019699999999997 32.4164 25.019699999999997 C 33.9534 25.019699999999997 35.3994 25.392699999999998 35.4934 25.417699999999996 z" stroke-linecap="round" />
</g>
		<g transform="matrix(1 0 0 1 -34.4325 -5.5554)" id="qAQ5_o_BkiTyCAzvSzcKI"  >
<path style="stroke: none; stroke-width: 1; stroke-dasharray: none; stroke-linecap: butt; stroke-dashoffset: 0; stroke-linejoin: miter; stroke-miterlimit: 4; fill: rgb(21,73,93); fill-rule: nonzero; opacity: 1;"  transform=" translate(-1.5675, -13.4446)" d="M 3.135 11.7996 C 3.135 10.9376 2.431 10.2386 1.5679999999999998 10.2386 C 0.7049999999999998 10.2386 -2.220446049250313e-16 10.9376 -2.220446049250313e-16 11.7996 L -2.220446049250313e-16 15.0836 C -2.220446049250313e-16 15.950600000000001 0.7049999999999997 16.6506 1.5679999999999998 16.6506 C 2.431 16.6506 3.135 15.950600000000001 3.135 15.0836 z" stroke-linecap="round" />
</g>
		<g transform="matrix(1 0 0 1 -25.8232 -7.7119)" id="67ffY4lX7EJoBgO11gO4m"  >
<path style="stroke: none; stroke-width: 1; stroke-dasharray: none; stroke-linecap: butt; stroke-dashoffset: 0; stroke-linejoin: miter; stroke-miterlimit: 4; fill: rgb(21,73,93); fill-rule: nonzero; opacity: 1;"  transform=" translate(-10.1768, -11.2881)" d="M 11.7443 7.4891 C 11.7443 6.6270999999999995 11.0403 5.9261 10.1773 5.9261 C 9.3133 5.9261 8.609300000000001 6.6270999999999995 8.609300000000001 7.4891 L 8.609300000000001 15.0841 C 8.609300000000001 15.9511 9.313300000000002 16.6501 10.1773 16.6501 C 11.0403 16.6501 11.7443 15.951099999999999 11.7443 15.084099999999998 z" stroke-linecap="round" />
</g>
		<g transform="matrix(1 0 0 1 -17.2138 -9.0994)" id="JZy-pPnT7ucpgWfS2rvRG"  >
<path style="stroke: none; stroke-width: 1; stroke-dasharray: none; stroke-linecap: butt; stroke-dashoffset: 0; stroke-linejoin: miter; stroke-miterlimit: 4; fill: rgb(21,73,93); fill-rule: nonzero; opacity: 1;"  transform=" translate(-18.7862, -9.9006)" d="M 20.3537 1.5916 C 20.3537 0.7295999999999999 19.6497 0.02959999999999985 18.7867 0.02959999999999985 C 17.9227 0.02959999999999985 17.2187 0.7295999999999998 17.2187 1.5916 L 17.2187 18.2046 C 17.2187 19.0716 17.9227 19.7716 18.7867 19.7716 C 19.6497 19.7716 20.3537 19.0716 20.3537 18.2046 z" stroke-linecap="round" />
</g>
		<g transform="matrix(1 0 0 1 -8.6044 -7.7119)" id="if_yLbHdpgvorfv9pBaoE"  >
<path style="stroke: none; stroke-width: 1; stroke-dasharray: none; stroke-linecap: butt; stroke-dashoffset: 0; stroke-linejoin: miter; stroke-miterlimit: 4; fill: rgb(21,73,93); fill-rule: nonzero; opacity: 1;"  transform=" translate(-27.3956, -11.2881)" d="M 28.9631 7.4891 C 28.9631 6.6270999999999995 28.2591 5.9261 27.3961 5.9261 C 26.5321 5.9261 25.8281 6.6270999999999995 25.8281 7.4891 L 25.8281 15.0841 C 25.8281 15.9511 26.5321 16.6501 27.3961 16.6501 C 28.2591 16.6501 28.9631 15.951099999999999 28.9631 15.084099999999998 z" stroke-linecap="round" />
</g>
		<g transform="matrix(1 0 0 1 0.0002 -5.5554)" id="1xOzWmftfnmIMXvfyqPj-"  >
<path style="stroke: none; stroke-width: 1; stroke-dasharray: none; stroke-linecap: butt; stroke-dashoffset: 0; stroke-linejoin: miter; stroke-miterlimit: 4; fill: rgb(21,73,93); fill-rule: nonzero; opacity: 1;"  transform=" translate(-36.0002, -13.4446)" d="M 37.5627 11.7996 C 37.5627 10.9376 36.8637 10.2386 36.0047 10.2386 C 35.1417 10.2386 34.4377 10.9376 34.4377 11.7996 L 34.4377 15.0836 C 34.4377 15.950600000000001 35.1417 16.6506 36.0047 16.6506 C 36.8637 16.6506 37.5627 15.950600000000001 37.5627 15.0836 z" stroke-linecap="round" />
</g>
		<g transform="matrix(1 0 0 1 -0.0008 -5.5554)" id="s9yDScDLgPuTFjXNuSvPI"  >
<path style="stroke: none; stroke-width: 1; stroke-dasharray: none; stroke-linecap: butt; stroke-dashoffset: 0; stroke-linejoin: miter; stroke-miterlimit: 4; fill: rgb(21,73,93); fill-rule: nonzero; opacity: 1;"  transform=" translate(-1.5675, -13.4446)" d="M 3.135 11.7996 C 3.135 10.9376 2.431 10.2386 1.5679999999999998 10.2386 C 0.7049999999999998 10.2386 -2.220446049250313e-16 10.9376 -2.220446049250313e-16 11.7996 L -2.220446049250313e-16 15.0836 C -2.220446049250313e-16 15.950600000000001 0.7049999999999997 16.6506 1.5679999999999998 16.6506 C 2.431 16.6506 3.135 15.950600000000001 3.135 15.0836 z" stroke-linecap="round" />
</g>
		<g transform="matrix(1 0 0 1 8.6085 -7.7119)" id="WLq1vIwLZku0CIy8UjKhh"  >
<path style="stroke: none; stroke-width: 1; stroke-dasharray: none; stroke-linecap: butt; stroke-dashoffset: 0; stroke-linejoin: miter; stroke-miterlimit: 4; fill: rgb(21,73,93); fill-rule: nonzero; opacity: 1;"  transform=" translate(-10.1768, -11.2881)" d="M 11.7443 7.4891 C 11.7443 6.6270999999999995 11.0403 5.9261 10.1773 5.9261 C 9.3133 5.9261 8.609300000000001 6.6270999999999995 8.609300000000001 7.4891 L 8.609300000000001 15.0841 C 8.609300000000001 15.9511 9.313300000000002 16.6501 10.1773 16.6501 C 11.0403 16.6501 11.7443 15.951099999999999 11.7443 15.084099999999998 z" stroke-linecap="round" />
</g>
		<g transform="matrix(1 0 0 1 17.2179 -9.0994)" id="1FWm0Eb7F65ynXBaUs6GK"  >
<path style="stroke: none; stroke-width: 1; stroke-dasharray: none; stroke-linecap: butt; stroke-dashoffset: 0; stroke-linejoin: miter; stroke-miterlimit: 4; fill: rgb(21,73,93); fill-rule: nonzero; opacity: 1;"  transform=" translate(-18.7862, -9.9006)" d="M 20.3537 1.5916 C 20.3537 0.7295999999999999 19.6497 0.02959999999999985 18.7867 0.02959999999999985 C 17.9227 0.02959999999999985 17.2187 0.7295999999999998 17.2187 1.5916 L 17.2187 18.2046 C 17.2187 19.0716 17.9227 19.7716 18.7867 19.7716 C 19.6497 19.7716 20.3537 19.0716 20.3537 18.2046 z" stroke-linecap="round" />
</g>
		<g transform="matrix(1 0 0 1 25.8273 -7.7119)" id="QMc5Hi1hzCce93RdYEy5z"  >
<path style="stroke: none; stroke-width: 1; stroke-dasharray: none; stroke-linecap: butt; stroke-dashoffset: 0; stroke-linejoin: miter; stroke-miterlimit: 4; fill: rgb(21,73,93); fill-rule: nonzero; opacity: 1;"  transform=" translate(-27.3956, -11.2881)" d="M 28.9631 7.4891 C 28.9631 6.6270999999999995 28.2591 5.9261 27.3961 5.9261 C 26.5321 5.9261 25.8281 6.6270999999999995 25.8281 7.4891 L 25.8281 15.0841 C 25.8281 15.9511 26.5321 16.6501 27.3961 16.6501 C 28.2591 16.6501 28.9631 15.951099999999999 28.9631 15.084099999999998 z" stroke-linecap="round" />
</g>
		<g transform="matrix(1 0 0 1 34.4319 -5.5554)" id="WX7VcWcxouklSg8AguiUN"  >
<path style="stroke: none; stroke-width: 1; stroke-dasharray: none; stroke-linecap: butt; stroke-dashoffset: 0; stroke-linejoin: miter; stroke-miterlimit: 4; fill: rgb(21,73,93); fill-rule: nonzero; opacity: 1;"  transform=" translate(-36.0002, -13.4446)" d="M 37.5627 11.7996 C 37.5627 10.9376 36.8637 10.2386 36.0047 10.2386 C 35.1417 10.2386 34.4377 10.9376 34.4377 11.7996 L 34.4377 15.0836 C 34.4377 15.950600000000001 35.1417 16.6506 36.0047 16.6506 C 36.8637 16.6506 37.5627 15.950600000000001 37.5627 15.0836 z" stroke-linecap="round" />
</g>
		<g transform="matrix(1 0 0 1 33.5196 17.9317)" id="bgR_KdKqxM_fxLRlPecrR"  >
<path style="stroke: none; stroke-width: 1; stroke-dasharray: none; stroke-linecap: butt; stroke-dashoffset: 0; stroke-linejoin: miter; stroke-miterlimit: 4; fill: rgb(196,18,46); fill-rule: nonzero; opacity: 1;"  transform=" translate(-69.5196, -36.9317)" d="M 70.1936 36.1082 L 70.1936 36.304199999999994 L 69.6356 36.304199999999994 L 69.6356 37.755199999999995 L 69.4066 37.755199999999995 L 69.4066 36.304199999999994 L 68.84559999999999 36.304199999999994 L 68.84559999999999 36.1082 z" stroke-linecap="round" />
</g>
		<g transform="matrix(1 0 0 1 35.1552 17.9317)" id="cOPNBCLcKAitUwdQHU12W"  >
<path style="stroke: none; stroke-width: 1; stroke-dasharray: none; stroke-linecap: butt; stroke-dashoffset: 0; stroke-linejoin: miter; stroke-miterlimit: 4; fill: rgb(196,18,46); fill-rule: nonzero; opacity: 1;"  transform=" translate(-71.1552, -36.9317)" d="M 70.3107 36.1082 L 70.66969999999999 36.1082 L 71.16269999999999 37.459199999999996 L 71.17069999999998 37.459199999999996 L 71.64769999999999 36.1082 L 71.99969999999999 36.1082 L 71.99969999999999 37.755199999999995 L 71.76469999999999 37.755199999999995 L 71.76469999999999 36.405199999999994 L 71.7567 36.405199999999994 L 71.2567 37.755199999999995 L 71.0397 37.755199999999995 L 70.5517 36.405199999999994 L 70.5407 36.405199999999994 L 70.5407 37.755199999999995 L 70.3107 37.755199999999995 z" stroke-linecap="round" />
</g>
</g>
</g>
</svg>