<?xml version="1.0" encoding="UTF-8" standalone="no" ?>
<!DOCTYPE svg PUBLIC "-//W3C//DTD SVG 1.1//EN" "http://www.w3.org/Graphics/SVG/1.1/DTD/svg11.dtd">
<svg xmlns="http://www.w3.org/2000/svg" xmlns:xlink="http://www.w3.org/1999/xlink" version="1.1" width="40" height="32" viewBox="0 -3.410388000000001 48.52597 38.820776" xml:space="preserve">
<desc>Created with Fabric.js 5.3.0</desc>
<defs>
</defs>
<g transform="matrix(0.0398014703 0 0 0.0482851965 559.0276292828 379.0007201371)" id="E7l0MC768SLaCTs-GBqeC"  >
<g style=""   >
		<g transform="matrix(3.3724425491 0 0 3.3724425491 -0.0000365211 -0.0002070621)" id="QhNYOqjIOURNYNCS3lxge"  >
<path style="stroke: none; stroke-width: 1; stroke-dasharray: none; stroke-linecap: butt; stroke-dashoffset: 0; stroke-linejoin: miter; stroke-miterlimit: 4; fill: rgb(0,113,197); fill-rule: nonzero; opacity: 1;"  transform=" translate(-150.0000026974, -99.2565804198)" d="M 88.79854 84.35368 L 88.79854 132.47583 L 73.47991 132.47583 L 73.47991 71.98853 L 105.10536 72.01993 C 118.53797 72.01993 123.11383000000001 81.49245 123.11383000000001 90.09662 L 123.11383000000001 132.4759 L 107.82285 132.4759 L 107.82285 90.1759 C 107.82285 86.57162 105.95711 84.35375 101.45683 84.35375 L 88.79854 84.35375 z M 192.96303 83.63098 C 187.72715 83.63098 183.67488 86.32266999999999 181.98243 89.97672 C 180.9795 92.17063 180.63475 93.85201 180.51676 96.53816 L 204.08374 96.53816 C 203.78139000000002 89.97672 200.80579 83.63098000000001 192.96303 83.63098000000001 M 180.51676 106.96383 C 180.51676 114.79921 185.3876 120.56605 194.08395000000002 120.56605 C 200.85003 120.56605 204.21279 118.69109 208.12495 114.79921 L 217.58641 123.83294000000001 C 211.52828 129.81365 205.17148 133.44558 193.97149 133.44558 C 179.30733999999998 133.44558 165.27371 125.44980000000001 165.27371 102.14645 C 165.27371 82.23536 177.52641 70.96348 193.62673 70.96348 C 209.94645 70.96348 219.37472000000002 84.1601 219.37472000000002 101.44588 L 219.37472000000002 106.96383 L 180.51676000000003 106.96383 M 152.34257000000002 132.40024 C 139.86311000000003 132.40024 134.56823000000003 123.71311 134.56823000000003 115.13291 L 134.56823000000003 55.508419999999994 L 149.86290000000002 55.508419999999994 L 149.86290000000002 71.98853 L 161.39289000000002 71.98853 L 161.39289000000002 84.35368 L 149.86290000000002 84.35368 L 149.86290000000002 114.17421999999999 C 149.86290000000002 117.68816 151.52216 119.63870999999999 155.17068000000003 119.63870999999999 L 161.39289000000002 119.63870999999999 L 161.39289000000002 132.40024 L 152.34257000000002 132.40024 M 59.85003000000002 63.62956 L 44.42632000000002 63.62956 L 44.42632000000002 48.97832 L 59.85003000000002 48.97832 L 59.85003000000002 63.62956 z M 59.88883000000002 133.11187999999999 C 48.33856 132.00202 44.40981 124.99627 44.40981 116.912 L 44.42651 71.98853 L 59.88895 71.98853 L 59.88895 133.11187999999999 z M 243.71795 131.81949999999998 C 232.19164 130.70779999999996 228.28133 123.71310999999997 228.28133 115.63989999999998 L 228.28133 46.89317999999999 L 243.71795 46.89317999999999 L 243.71795 131.8195 z M 297.68253 56.82845 C 283.69314 -11.37625 151.29731 -15.694 65.95986 36.25734 L 65.95986 41.99284 C 151.21066000000002 -1.8189199999999985 272.11705 -1.5608199999999997 283.13268 61.258660000000006 C 286.81807 82.03072 275.11293 103.68772000000001 254.20812999999998 116.13583 L 254.20812999999998 132.42237 C 279.36985 123.21718 305.17499 93.36714 297.68251999999995 56.828450000000004 M 142.55855 176.16037 C 83.66229 181.60458 22.28821 173.05572 13.70063 127.03347 C 9.49718 104.34589 19.83251 80.29588 33.54351 65.35703 L 33.54351 57.368629999999996 C 8.86113 79.01272 -4.534610000000001 106.41443 3.1772499999999972 138.79207 C 13.020339999999997 180.31036 65.69438 203.83863 146.09276999999997 196.02537 C 177.90257999999997 192.92072000000002 219.53702999999996 182.69232 248.48184999999998 166.80585000000002 L 248.48184999999998 144.23628000000002 C 222.21765 159.87569000000002 178.75617 172.80867 142.55854999999997 176.16037000000003" stroke-linecap="round" />
</g>
		<g transform="matrix(3.3724425491 0 0 3.3724425491 372.181500023 -155.8787355131)" id="cMDlRX3fLWMCDwNo9LBm-"  >
<path style="stroke: none; stroke-width: 1; stroke-dasharray: none; stroke-linecap: butt; stroke-dashoffset: 0; stroke-linejoin: miter; stroke-miterlimit: 4; fill: rgb(0,113,197); fill-rule: nonzero; opacity: 1;"  transform=" translate(-260.35964, -53.035325)" d="M 261.56171 51.45816 C 261.56171 50.709649999999996 261.12477 50.47183 260.12553 50.47183 L 259.16132000000005 50.47183 L 259.16132000000005 52.59014 C 259.30143000000004 52.59014 260.00201000000004 52.615939999999995 260.12553 52.615939999999995 C 261.12477 52.615939999999995 261.56171 52.28225 261.56171 51.581669999999995 L 261.56171 51.45822999999999 z M 263.0661 56.71063 L 261.92306 56.71063 C 261.81982 56.71063 261.72948 56.64603 261.68523000000005 56.55946 L 260.12553 53.915710000000004 C 260.09783000000004 53.86231 259.96329000000003 53.79771 259.90983 53.79771 L 259.20925 53.79771 L 259.20925 56.419340000000005 C 259.20925 56.55946000000001 259.11335 56.71063 258.92902 56.71063 L 257.89475 56.71063 C 257.7657 56.71063 257.63665 56.55946 257.63665 56.419340000000005 L 257.63665 49.78784 C 257.63665 49.40437 257.78598 49.24398 258.11046 49.1942 C 258.47549 49.146300000000004 259.46736 49.1131 260.00201 49.1131 C 261.90094 49.1131 263.04951 49.67356 263.04951 51.458180000000006 L 263.04951 51.581630000000004 C 263.04951 52.68596 262.50011 53.26854 261.64836 53.554300000000005 L 263.26522 56.28839000000001 C 263.27552 56.34369000000001 263.31312 56.419360000000005 263.31312 56.483810000000005 C 263.31312 56.590740000000004 263.24852000000004 56.71058000000001 263.06607 56.71058000000001 M 260.35227000000003 47.916520000000006 C 257.5389 47.916520000000006 255.26388000000003 50.23948000000001 255.26388000000003 53.03625 C 255.26388000000003 55.8367 257.5389 58.12279 260.35227000000003 58.12279 C 263.15088000000003 58.12279 265.44803 55.8367 265.44803 53.03625 C 265.44803 50.23948 263.15088000000003 47.916520000000006 260.35227000000003 47.916520000000006 M 260.35227000000003 59.17734000000001 C 256.93420000000003 59.17734000000001 254.20748000000003 56.41929000000001 254.20748000000003 53.03625000000001 C 254.20748000000003 49.65874000000001 256.93420000000003 46.89331000000001 260.35227000000003 46.89331000000001 C 263.73347 46.89331000000001 266.51180000000005 49.65874000000001 266.51180000000005 53.03625000000001 C 266.51180000000005 56.41929000000001 263.73347000000007 59.17734000000001 260.35227000000003 59.17734000000001" stroke-linecap="round" />
</g>
</g>
</g>
<g transform="matrix(0.0398014703 0 0 0.0482851965 24.262985 16)" id="DTGYVLZGhT3Xo26t3t9Fa"  >
<g style=""   >
		<g transform="matrix(3.3724425491 0 0 3.3724425491 -0.0000365211 -0.0002070621)" id="3h7ujj-279I3A5c4Elb--"  >
<path style="stroke: none; stroke-width: 1; stroke-dasharray: none; stroke-linecap: butt; stroke-dashoffset: 0; stroke-linejoin: miter; stroke-miterlimit: 4; fill: rgb(0,113,197); fill-rule: nonzero; opacity: 1;"  transform=" translate(-150.0000026974, -99.2565804198)" d="M 88.79854 84.35368 L 88.79854 132.47583 L 73.47991 132.47583 L 73.47991 71.98853 L 105.10536 72.01993 C 118.53797 72.01993 123.11383000000001 81.49245 123.11383000000001 90.09662 L 123.11383000000001 132.4759 L 107.82285 132.4759 L 107.82285 90.1759 C 107.82285 86.57162 105.95711 84.35375 101.45683 84.35375 L 88.79854 84.35375 z M 192.96303 83.63098 C 187.72715 83.63098 183.67488 86.32266999999999 181.98243 89.97672 C 180.9795 92.17063 180.63475 93.85201 180.51676 96.53816 L 204.08374 96.53816 C 203.78139000000002 89.97672 200.80579 83.63098000000001 192.96303 83.63098000000001 M 180.51676 106.96383 C 180.51676 114.79921 185.3876 120.56605 194.08395000000002 120.56605 C 200.85003 120.56605 204.21279 118.69109 208.12495 114.79921 L 217.58641 123.83294000000001 C 211.52828 129.81365 205.17148 133.44558 193.97149 133.44558 C 179.30733999999998 133.44558 165.27371 125.44980000000001 165.27371 102.14645 C 165.27371 82.23536 177.52641 70.96348 193.62673 70.96348 C 209.94645 70.96348 219.37472000000002 84.1601 219.37472000000002 101.44588 L 219.37472000000002 106.96383 L 180.51676000000003 106.96383 M 152.34257000000002 132.40024 C 139.86311000000003 132.40024 134.56823000000003 123.71311 134.56823000000003 115.13291 L 134.56823000000003 55.508419999999994 L 149.86290000000002 55.508419999999994 L 149.86290000000002 71.98853 L 161.39289000000002 71.98853 L 161.39289000000002 84.35368 L 149.86290000000002 84.35368 L 149.86290000000002 114.17421999999999 C 149.86290000000002 117.68816 151.52216 119.63870999999999 155.17068000000003 119.63870999999999 L 161.39289000000002 119.63870999999999 L 161.39289000000002 132.40024 L 152.34257000000002 132.40024 M 59.85003000000002 63.62956 L 44.42632000000002 63.62956 L 44.42632000000002 48.97832 L 59.85003000000002 48.97832 L 59.85003000000002 63.62956 z M 59.88883000000002 133.11187999999999 C 48.33856 132.00202 44.40981 124.99627 44.40981 116.912 L 44.42651 71.98853 L 59.88895 71.98853 L 59.88895 133.11187999999999 z M 243.71795 131.81949999999998 C 232.19164 130.70779999999996 228.28133 123.71310999999997 228.28133 115.63989999999998 L 228.28133 46.89317999999999 L 243.71795 46.89317999999999 L 243.71795 131.8195 z M 297.68253 56.82845 C 283.69314 -11.37625 151.29731 -15.694 65.95986 36.25734 L 65.95986 41.99284 C 151.21066000000002 -1.8189199999999985 272.11705 -1.5608199999999997 283.13268 61.258660000000006 C 286.81807 82.03072 275.11293 103.68772000000001 254.20812999999998 116.13583 L 254.20812999999998 132.42237 C 279.36985 123.21718 305.17499 93.36714 297.68251999999995 56.828450000000004 M 142.55855 176.16037 C 83.66229 181.60458 22.28821 173.05572 13.70063 127.03347 C 9.49718 104.34589 19.83251 80.29588 33.54351 65.35703 L 33.54351 57.368629999999996 C 8.86113 79.01272 -4.534610000000001 106.41443 3.1772499999999972 138.79207 C 13.020339999999997 180.31036 65.69438 203.83863 146.09276999999997 196.02537 C 177.90257999999997 192.92072000000002 219.53702999999996 182.69232 248.48184999999998 166.80585000000002 L 248.48184999999998 144.23628000000002 C 222.21765 159.87569000000002 178.75617 172.80867 142.55854999999997 176.16037000000003" stroke-linecap="round" />
</g>
		<g transform="matrix(3.3724425491 0 0 3.3724425491 372.181500023 -155.8787355131)" id="4g5HVtfh_r22B-xdWwZGU"  >
<path style="stroke: none; stroke-width: 1; stroke-dasharray: none; stroke-linecap: butt; stroke-dashoffset: 0; stroke-linejoin: miter; stroke-miterlimit: 4; fill: rgb(0,113,197); fill-rule: nonzero; opacity: 1;"  transform=" translate(-260.35964, -53.035325)" d="M 261.56171 51.45816 C 261.56171 50.709649999999996 261.12477 50.47183 260.12553 50.47183 L 259.16132000000005 50.47183 L 259.16132000000005 52.59014 C 259.30143000000004 52.59014 260.00201000000004 52.615939999999995 260.12553 52.615939999999995 C 261.12477 52.615939999999995 261.56171 52.28225 261.56171 51.581669999999995 L 261.56171 51.45822999999999 z M 263.0661 56.71063 L 261.92306 56.71063 C 261.81982 56.71063 261.72948 56.64603 261.68523000000005 56.55946 L 260.12553 53.915710000000004 C 260.09783000000004 53.86231 259.96329000000003 53.79771 259.90983 53.79771 L 259.20925 53.79771 L 259.20925 56.419340000000005 C 259.20925 56.55946000000001 259.11335 56.71063 258.92902 56.71063 L 257.89475 56.71063 C 257.7657 56.71063 257.63665 56.55946 257.63665 56.419340000000005 L 257.63665 49.78784 C 257.63665 49.40437 257.78598 49.24398 258.11046 49.1942 C 258.47549 49.146300000000004 259.46736 49.1131 260.00201 49.1131 C 261.90094 49.1131 263.04951 49.67356 263.04951 51.458180000000006 L 263.04951 51.581630000000004 C 263.04951 52.68596 262.50011 53.26854 261.64836 53.554300000000005 L 263.26522 56.28839000000001 C 263.27552 56.34369000000001 263.31312 56.419360000000005 263.31312 56.483810000000005 C 263.31312 56.590740000000004 263.24852000000004 56.71058000000001 263.06607 56.71058000000001 M 260.35227000000003 47.916520000000006 C 257.5389 47.916520000000006 255.26388000000003 50.23948000000001 255.26388000000003 53.03625 C 255.26388000000003 55.8367 257.5389 58.12279 260.35227000000003 58.12279 C 263.15088000000003 58.12279 265.44803 55.8367 265.44803 53.03625 C 265.44803 50.23948 263.15088000000003 47.916520000000006 260.35227000000003 47.916520000000006 M 260.35227000000003 59.17734000000001 C 256.93420000000003 59.17734000000001 254.20748000000003 56.41929000000001 254.20748000000003 53.03625000000001 C 254.20748000000003 49.65874000000001 256.93420000000003 46.89331000000001 260.35227000000003 46.89331000000001 C 263.73347 46.89331000000001 266.51180000000005 49.65874000000001 266.51180000000005 53.03625000000001 C 266.51180000000005 56.41929000000001 263.73347000000007 59.17734000000001 260.35227000000003 59.17734000000001" stroke-linecap="round" />
</g>
</g>
</g>
</svg>