<?xml version="1.0" standalone="no"?>
<!DOCTYPE svg PUBLIC "-//W3C//DTD SVG 20010904//EN"
 "http://www.w3.org/TR/2001/REC-SVG-20010904/DTD/svg10.dtd">
<svg version="1.0" xmlns="http://www.w3.org/2000/svg"
 width="32.000000pt" height="32.000000pt" viewBox="0 0 32.000000 32.000000"
 preserveAspectRatio="xMidYMid meet">

<g transform="translate(0.000000,32.000000) scale(0.100000,-0.100000)"
fill="#000000" stroke="none">
<path d="M52 268 c-7 -7 -12 -43 -12 -89 0 -70 -2 -78 -21 -84 -14 -5 -19 -14
-17 -28 3 -21 7 -22 158 -22 142 0 155 1 158 18 2 11 -5 25 -17 33 -18 13 -21
25 -21 88 0 43 -5 77 -12 84 -16 16 -200 16 -216 0z m188 -83 l0 -55 -80 0
-80 0 0 55 0 55 80 0 80 0 0 -55z m-62 -112 c-10 -2 -26 -2 -35 0 -10 3 -2 5
17 5 19 0 27 -2 18 -5z"/>
</g>
</svg>
