<?xml version="1.0" encoding="UTF-8" standalone="no" ?>
<!DOCTYPE svg PUBLIC "-//W3C//DTD SVG 1.1//EN" "http://www.w3.org/Graphics/SVG/1.1/DTD/svg11.dtd">
<svg xmlns="http://www.w3.org/2000/svg" xmlns:xlink="http://www.w3.org/1999/xlink" version="1.1" width="36" height="21" viewBox="0 0 36 21" xml:space="preserve">
<desc>Created with Fabric.js 5.3.0</desc>
<defs>
</defs>
<g transform="matrix(0.1089902074 0 0 0.29880977 18 10.1506520834)" id="tgyrUS8TU_bmNzha9qQav"  >
<g style=""   >
		<g transform="matrix(1.25 0 0 -1.25 151.549495 -24.840775)" id="XBAdfptYI_qPTluHuthk6"  >
<path style="stroke: none; stroke-width: 1; stroke-dasharray: none; stroke-linecap: butt; stroke-dashoffset: 0; stroke-linejoin: miter; stroke-miterlimit: 4; fill: rgb(35,31,32); fill-rule: nonzero; opacity: 1;"  transform=" translate(-710.90832, -696.47933)" d="M 708.61507 699.39523 L 710.96007 699.39523 C 711.51316 699.39523 711.91747 699.28203 712.16653 699.05561 C 712.42529 698.83567 712.55467 698.54133 712.55467 698.19201 L 712.3541299999999 697.5257 L 711.7751599999999 697.08258 C 711.5293399999999 696.98558 711.1800099999999 696.94026 710.72719 696.94026 L 708.61507 696.94026 L 708.61507 699.39523 z M 708.61507 692.72897 L 708.61507 696.06048 L 709.75361 696.06048 L 710.3002299999999 696.0248799999999 L 710.74659 695.8275799999999 L 711.2608799999999 695.3262399999999 C 711.43554 695.0836499999999 711.6781199999999 694.7407999999999 711.9692299999999 694.2911999999999 L 712.9460399999999 692.7289499999999 L 714.1880799999999 692.7289499999999 L 712.8878199999999 694.7763799999999 C 712.6387599999999 695.1774499999999 712.3605999999999 695.5008999999999 712.0791999999999 695.7758299999999 L 711.4808199999999 696.1413299999999 C 712.1956399999999 696.24483 712.7196299999998 696.4777099999999 713.0721799999999 696.8399699999999 C 713.3988699999999 697.2086999999999 713.5735299999999 697.6518299999999 713.5735299999999 698.1887499999999 C 713.5735299999999 698.59953 713.4765299999999 698.9747299999999 713.2694899999999 699.3175799999999 C 713.0657099999999 699.6604399999999 712.7843099999999 699.8933199999999 712.4349899999999 700.03564 C 712.0921399999999 700.16825 711.5843199999998 700.22971 710.9244899999999 700.22971 L 707.6285599999999 700.22971 L 707.6285599999999 692.7289499999999 L 708.6150699999998 692.7289499999999" stroke-linecap="round" />
</g>
		<g transform="matrix(1.25 0 0 -1.25 150.87227 -24.9054875)" id="qbSAc7FpqiSTtMPEuUk0N"  >
<path style="stroke: none; stroke-width: 1; stroke-dasharray: none; stroke-linecap: butt; stroke-dashoffset: 0; stroke-linejoin: miter; stroke-miterlimit: 4; fill: rgb(35,31,32); fill-rule: nonzero; opacity: 1;"  transform=" translate(-710.36654, -696.5311)" d="M 704.59461 696.53272 C 704.59461 699.71545 707.1822 702.29979 710.36492 702.29979 C 713.55089 702.29979 716.13847 699.71545 716.13847 696.53272 C 716.13847 693.34999 713.55089 690.7527 710.36492 690.7527 C 707.1822 690.7527 704.59461 693.34999 704.59461 696.53272 z M 703.54664 696.53272 C 703.54664 692.77102 706.60646 689.7112000000001 710.36492 689.7112000000001 C 714.12986 689.7112000000001 717.18644 692.77102 717.18644 696.53272 C 717.18644 700.29118 714.1298599999999 703.351 710.36492 703.351 C 706.60646 703.351 703.54664 700.29118 703.54664 696.53272" stroke-linecap="round" />
</g>
		<g transform="matrix(1.25 0 0 -1.25 35.94718875 1.80726875)" id="ryMr43YXN0swR9wHDdVqQ"  >
<path style="stroke: none; stroke-width: 1; stroke-dasharray: none; stroke-linecap: butt; stroke-dashoffset: 0; stroke-linejoin: miter; stroke-miterlimit: 4; fill: rgb(0,121,194); fill-rule: nonzero; opacity: 1;"  transform=" translate(-618.426475, -675.160895)" d="M 628.61023 675.16251 C 628.61023 665.22943 624.05285 657.19498 618.42486 657.19498 C 612.80657 657.19498 608.24272 665.22943 608.24272 675.16251 C 608.24272 685.08266 612.80657 693.12681 618.42486 693.12681 C 624.0528499999999 693.12681 628.61023 685.08266 628.61023 675.16251" stroke-linecap="round" />
</g>
		<g transform="matrix(1.25 0 0 -1.25 54.99625125 1.92249375)" id="hmMF6Nh1xO83ZbizgDTyH"  >
<path style="stroke: none; stroke-width: 1; stroke-dasharray: none; stroke-linecap: butt; stroke-dashoffset: 0; stroke-linejoin: miter; stroke-miterlimit: 4; fill: rgb(0,121,194); fill-rule: nonzero; opacity: 1;"  transform=" translate(-633.665725, -675.068715)" d="M 623.05016 700.27501 C 634.13472 697.9753 642.50555 687.58615 642.50555 675.1107599999999 C 642.50555 662.4801199999999 633.92448 651.9907099999999 622.6361499999999 649.8624199999999 L 644.6953 649.8624199999999 L 644.6953 700.27501 L 623.05016 700.27501" stroke-linecap="round" />
</g>
		<g transform="matrix(1.25 0 0 -1.25 16.88397625 1.92249375)" id="dUzDEmogK4iH8p2TG7wJF"  >
<path style="stroke: none; stroke-width: 1; stroke-dasharray: none; stroke-linecap: butt; stroke-dashoffset: 0; stroke-linejoin: miter; stroke-miterlimit: 4; fill: rgb(0,121,194); fill-rule: nonzero; opacity: 1;"  transform=" translate(-603.175905, -675.068715)" d="M 594.35063 675.11076 C 594.35063 687.58615 602.7149900000001 697.9753000000001 613.80926 700.2750100000001 L 592.13825 700.2750100000001 L 592.13825 649.86242 L 614.2135599999999 649.86242 C 602.9316999999999 651.99071 594.3506299999999 662.48012 594.3506299999999 675.11076" stroke-linecap="round" />
</g>
		<g transform="matrix(1.25 0 0 -1.25 95.9285825 -11.54305)" id="YWwFwnzqj3oZPHMkMhnDI"  >
<path style="stroke: none; stroke-width: 1; stroke-dasharray: none; stroke-linecap: butt; stroke-dashoffset: 0; stroke-linejoin: miter; stroke-miterlimit: 4; fill: rgb(0,121,194); fill-rule: nonzero; opacity: 1;"  transform=" translate(-666.41159, -685.84115)" d="M 659.36366 700.20709 L 673.45952 671.47521 L 673.45952 700.20709 L 659.36366 700.20709" stroke-linecap="round" />
</g>
		<g transform="matrix(1.25 0 0 -1.25 94.96227625 14.1569125)" id="LJxMnejNCkkcYr3kMXP7g"  >
<path style="stroke: none; stroke-width: 1; stroke-dasharray: none; stroke-linecap: butt; stroke-dashoffset: 0; stroke-linejoin: miter; stroke-miterlimit: 4; fill: rgb(0,121,194); fill-rule: nonzero; opacity: 1;"  transform=" translate(-665.638545, -665.28118)" d="M 658.24776 649.86242 L 673.02933 649.86242 L 658.24776 680.6999400000001 L 658.24776 649.86242" stroke-linecap="round" />
</g>
		<g transform="matrix(1.25 0 0 -1.25 127.61030125 1.92249375)" id="3YjQnm_UYLp6-01OObroD"  >
<path style="stroke: none; stroke-width: 1; stroke-dasharray: none; stroke-linecap: butt; stroke-dashoffset: 0; stroke-linejoin: miter; stroke-miterlimit: 4; fill: rgb(0,121,194); fill-rule: nonzero; opacity: 1;"  transform=" translate(-691.756965, -675.068715)" d="M 686.98611 649.86242 L 696.52782 649.86242 L 696.52782 700.2750100000001 L 686.98611 700.2750100000001 L 686.98611 649.86242 z" stroke-linecap="round" />
</g>
		<g transform="matrix(1.25 0 0 -1.25 -108.9615175 1.92249375)" id="hSWaEYl_pI6re9_F0rmu9"  >
<path style="stroke: none; stroke-width: 1; stroke-dasharray: none; stroke-linecap: butt; stroke-dashoffset: 0; stroke-linejoin: miter; stroke-miterlimit: 4; fill: rgb(0,121,194); fill-rule: nonzero; opacity: 1;"  transform=" translate(-502.49951, -675.068715)" d="M 495.48878 649.86242 L 509.51024 649.86242 L 509.51024 700.2750100000001 L 495.48878 700.2750100000001 L 495.48878 649.86242 z" stroke-linecap="round" />
</g>
		<g transform="matrix(1.25 0 0 -1.25 -74.02106125 1.9265375)" id="xtKGrlFSX5MkxL7yPhtNH"  >
<path style="stroke: none; stroke-width: 1; stroke-dasharray: none; stroke-linecap: butt; stroke-dashoffset: 0; stroke-linejoin: miter; stroke-miterlimit: 4; fill: rgb(0,121,194); fill-rule: nonzero; opacity: 1;"  transform=" translate(-530.451875, -675.06548)" d="M 549.00323 700.26854 L 511.90052000000003 700.26854 L 511.90052000000003 691.08909 L 523.36352 691.08909 L 523.36352 649.86242 L 537.52083 649.86242 L 537.52083 691.08262 L 549.00323 691.08262 L 549.00323 700.26854" stroke-linecap="round" />
</g>
		<g transform="matrix(1.25 0 0 -1.25 -140.05093 1.91440625)" id="qUV5hIiJjuynn4QX6ZKkx"  >
<path style="stroke: none; stroke-width: 1; stroke-dasharray: none; stroke-linecap: butt; stroke-dashoffset: 0; stroke-linejoin: miter; stroke-miterlimit: 4; fill: rgb(0,121,194); fill-rule: nonzero; opacity: 1;"  transform=" translate(-477.62798, -675.075185)" d="M 493.10496 649.87536 L 493.10496 659.05157 L 476.31478 659.05157 L 476.31478 700.27501 L 462.151 700.27501 L 462.151 649.87536 L 493.10496 649.87536" stroke-linecap="round" />
</g>
		<g transform="matrix(1.25 0 0 -1.25 -23.8502425 1.916425)" id="YPv5vqyx6mULvjotBcTsE"  >
<path style="stroke: none; stroke-width: 1; stroke-dasharray: none; stroke-linecap: butt; stroke-dashoffset: 0; stroke-linejoin: miter; stroke-miterlimit: 4; fill: rgb(0,121,194); fill-rule: nonzero; opacity: 1;"  transform=" translate(-570.58853, -675.07357)" d="M 589.78678 649.87536 L 589.78678 659.08068 L 565.43762 659.08068 L 565.43762 670.4143 L 587.00513 670.4143 L 587.00513 679.61963 L 565.43762 679.61963 L 565.43762 691.07615 L 589.78678 691.07615 L 589.78678 700.27178 L 551.3902800000001 700.27178 L 551.3902800000001 649.87536 L 589.7867800000001 649.87536" stroke-linecap="round" />
</g>
</g>
</g>
</svg>