<?xml version="1.0" encoding="UTF-8" standalone="no" ?>
<!DOCTYPE svg PUBLIC "-//W3C//DTD SVG 1.1//EN" "http://www.w3.org/Graphics/SVG/1.1/DTD/svg11.dtd">
<svg xmlns="http://www.w3.org/2000/svg" xmlns:xlink="http://www.w3.org/1999/xlink" version="1.1" width="42" height="42" viewBox="0 0 42 42" xml:space="preserve">
<desc>Created with Fabric.js 5.3.0</desc>
<defs>
</defs>
<g transform="matrix(0.08203125 0 0 0.08203125 20.6138763198 20.6138763198)" id="F42hgl6SFkDNYiqNPy24k"  >
<g style=""   >
		<g transform="matrix(1 0 0 1 0 0.0005)" id="YI411Gjrxbhxg7UWafWk0"  >
<path style="stroke: none; stroke-width: 1; stroke-dasharray: none; stroke-linecap: butt; stroke-dashoffset: 0; stroke-linejoin: miter; stroke-miterlimit: 4; fill: rgb(255,105,0); fill-rule: nonzero; opacity: 1;"  transform=" translate(-55.992, -56.2735)" d="M 258.626 -146.231 C 210.32199999999997 -194.349 140.86699999999996 -199.727 55.99199999999999 -199.727 C -28.99000000000001 -199.727 -98.55000000000001 -194.287 -146.834 -146.039 C -195.111 -97.81099999999998 -200.008 -28.362999999999985 -200.008 56.52200000000002 C -200.008 141.42100000000002 -195.11100000000002 210.89000000000001 -146.81400000000002 259.135 C -98.53300000000002 307.39 -28.981000000000023 312.274 55.99199999999999 312.274 C 140.966 312.274 210.506 307.39 258.787 259.135 C 307.08099999999996 210.881 311.99199999999996 141.421 311.99199999999996 56.52199999999999 C 311.992 -28.472 307.028 -97.995 258.626 -146.231 L 258.626 -146.231 z" stroke-linecap="round" />
</g>
		<g transform="matrix(1 0 0 1 -1.367 0.448)" id="xVsVXP59C8FqpZc9Mw6ei"  >
<path style="stroke: none; stroke-width: 1; stroke-dasharray: none; stroke-linecap: butt; stroke-dashoffset: 0; stroke-linejoin: miter; stroke-miterlimit: 4; fill: rgb(255,255,255); fill-rule: nonzero; opacity: 1;"  transform=" translate(-54.625, -56.721)" d="M 204.546 -41.122 C 206.30499999999998 -41.122 207.769 -39.705 207.769 -37.961 L 207.769 151.425 C 207.769 153.14000000000001 206.305 154.56400000000002 204.546 154.56400000000002 L 163.05 154.56400000000002 C 161.269 154.56400000000002 159.822 153.14000000000001 159.822 151.425 L 159.822 -37.961 C 159.822 -39.704 161.268 -41.122 163.05 -41.122 L 204.546 -41.122 z M 24.468 -41.122 C 55.771 -41.122 88.501 -39.687 104.644 -23.533 C 120.515 -7.636000000000001 122.23400000000001 24.016 122.30000000000001 54.753 L 122.30000000000001 151.424 C 122.30000000000001 153.139 120.85400000000001 154.56300000000002 119.08100000000002 154.56300000000002 L 77.59100000000001 154.56300000000002 C 75.81400000000001 154.56300000000002 74.36200000000001 153.139 74.36200000000001 151.424 L 74.36200000000001 53.09 C 74.31800000000001 35.923 73.331 18.28 64.47800000000001 9.398000000000003 C 56.85800000000001 1.7570000000000032 42.63900000000001 0.007000000000003226 27.85300000000001 -0.3559999999999963 L -47.356999999999985 -0.3559999999999963 C -49.12099999999999 -0.3559999999999963 -50.56499999999998 1.0630000000000037 -50.56499999999998 2.780000000000004 L -50.56499999999998 151.425 C -50.56499999999998 153.14000000000001 -52.02699999999999 154.56400000000002 -53.801999999999985 154.56400000000002 L -95.31799999999998 154.56400000000002 C -97.09199999999998 154.56400000000002 -98.51899999999998 153.14000000000001 -98.51899999999998 151.425 L -98.51899999999998 -37.961 C -98.51899999999998 -39.704 -97.09299999999998 -41.122 -95.31799999999998 -41.122 L 24.468 -41.122 z M 33.755 34.305 C 35.521 34.305 36.956 35.717999999999996 36.956 37.448 L 36.956 151.425 C 36.956 153.14000000000001 35.52 154.56400000000002 33.755 154.56400000000002 L -9.829 154.56400000000002 C -11.621 154.56400000000002 -13.057 153.14000000000001 -13.057 151.425 L -13.057 37.448 C -13.057 35.718 -11.621 34.305 -9.829 34.305 L 33.755 34.305 z" stroke-linecap="round" />
</g>
</g>
</g>
</svg>